<mxfile host="app.diagrams.net" agent="Mozilla/5.0 (Windows NT 10.0; Win64; x64) AppleWebKit/537.36 (KHTML, like Gecko) Chrome/138.0.0.0 Safari/537.36" version="27.0.6">
  <diagram name="PÃ¡gina-1" id="SEJ9O0S86j4l_cm-ovuG">
    <mxGraphModel dx="1765" dy="660" grid="0" gridSize="10" guides="0" tooltips="1" connect="0" arrows="0" fold="1" page="0" pageScale="1" pageWidth="827" pageHeight="1169" math="0" shadow="0">
      <root>
        <mxCell id="0" />
        <mxCell id="1" parent="0" />
        <mxCell id="oTmP2A5p6jje87KI3bVO-35" value="" style="group;movable=0;resizable=0;rotatable=0;deletable=0;editable=0;locked=1;connectable=0;" vertex="1" connectable="0" parent="1">
          <mxGeometry x="230" y="10" width="1000" height="500" as="geometry" />
        </mxCell>
        <mxCell id="oTmP2A5p6jje87KI3bVO-4" value="" style="rounded=0;whiteSpace=wrap;html=1;fillColor=#dae8fc;strokeColor=#6c8ebf;fontStyle=1" vertex="1" parent="oTmP2A5p6jje87KI3bVO-35">
          <mxGeometry y="20" width="1000" height="480" as="geometry" />
        </mxCell>
        <mxCell id="oTmP2A5p6jje87KI3bVO-5" value="Enviroment AWS" style="rounded=0;whiteSpace=wrap;html=1;" vertex="1" parent="oTmP2A5p6jje87KI3bVO-35">
          <mxGeometry width="1000" height="30" as="geometry" />
        </mxCell>
        <mxCell id="oTmP2A5p6jje87KI3bVO-3" style="edgeStyle=orthogonalEdgeStyle;rounded=0;orthogonalLoop=1;jettySize=auto;html=1;flowAnimation=1;" edge="1" parent="1" source="oTmP2A5p6jje87KI3bVO-1" target="oTmP2A5p6jje87KI3bVO-2">
          <mxGeometry relative="1" as="geometry" />
        </mxCell>
        <mxCell id="oTmP2A5p6jje87KI3bVO-1" value="Dados do Site Ibovespa" style="shape=image;verticalLabelPosition=bottom;labelBackgroundColor=default;verticalAlign=top;aspect=fixed;imageAspect=0;image=data:image/png,iVBORw0KGgoAAAANSUhEUgAAAUoAAACZCAMAAAB+KoMCAAAAkFBMVEUBNoH///8ALX0AInnc4+5pgKsANIByha0AKnwAMX9nfakAJXuLmbnV3Oj6+/0AMYHu8vdBW5QAG3fp6vB+jrKbq8cRO4MAKHsAH3jI0eC4w9Zac6Pj6vIAIXkALX8aRooRQIYlSowwUpFSbaAAAHCSosGns81LZpsAEXQ0V5S+x9nP1OGGmLtAX5dAWJF4jLP1f5SwAAAD4klEQVR4nO3ce3OaShiAcUFduVShJBYvRJN4Yk6iab7/tzvxAvuChC4WG3t4fv90inGGeYZFWC6dDgAAAAAAAAAAAAAAAAAAAAD8USqwA/XVK/F/oCbL+WC+nLhfvSJ/Pft+au1sHuyvXpW/nPsYWgejR7bL36GcxEolXXaYvyFY7SK+erPdP14rh3hg5wTnfsd5Cm9uNpH9z26YP8WXXemr5M69nLnB0FTF7+x3jbb/wXEOKZ1Lr/cV6uo93F5osFkGYf47STf95Md2ux/gqzb+7nR7hSwmKQv5e2lKtTwsWN9ddJ2vVMMpR/uDIc+/6DpfqWJKowH+ecpw39J6bu8AT3qpqfvr3x03LEmpnDiOHTd42304a+NmeUjpTeKjhcnB9Y+U6qcplfs0Ho8Hd+rf3e/OcHLxFb8+h5R9Wx0ZfSn9Y+V42VY52Y/6QfTS8q2yf+bZia1TLgZiyLfybKexlMqfZiU3bRzfzaXsqO7rseS0ndO/zaX82C7nr0nYm3l+K0s2mfLjv90oiny7nSVPUrp+uTu/rHYhZbsVUgbz3rDUZt23TwcuKYVCSlse0hSM1p3i3BkphRopP2LOC1M+pBRqpbSsbb4aKYWaKa3b3CkhKYW6Ka03OQtHSqF2yqH8HSelUDtl7nCelEJFypefqbd3MW8+jPS3SSlUpLTdjBPpaR9rqUc4KYWKlPLShFroixADPcJJKRim7HTX2XJx6wUpBdOUh2h7a1KWMk0prjes9VE6KQXTlJNZtnzMVlnKMKW91MtvF3oxKbWKlLGTmTyKuwgeOBgqVZHyVpuN9OIeh+jl6p84vov5X1IKtVMm8hoPKYXaKZ/lRQlSCrVTTh0m2crV31fO+NkpVz+l9c4heqkzUo70rYOkFCpS3gi5+3y/ZZslKYWKlJHQ2YqUSba3JKVgOvXbXYmW2akjKQXTmaHO5FV/Mk8v4JJSME7piE+ySxKkFIxTBitSVjNOKW/b90hZwnxfqafRrbf0YTFSCqYp42f9wSibRielUJHS9+NMtBKTv9PsWRJSChUpx8LGEvRdQ6QUzjgHD7k7o9QZKQd68peUAvOVjamdchMwi16ubsqpf3onESn36j4hkX8MipRCnZTh+D7OP1BGSqGQ0v3+7RNb72Fx8mQeKYWTx0Wdz9glb4MgpdDoQ8ztRsrGkLIxpGwMKRtDysYcXyQWBweu0XvpXPf4536flJlDylEmMXm9XZL9uUXKTKPvr2w3UjaGlI05462qyh2GOZs2vmLxlHr5nvPT5GXe+gWW5u+8bAG3wOhLpAQAAAAAAAAAAAAAAAAAAAAAAMAV+w8bVUFtQGJJ8AAAAABJRU5ErkJggg==;" vertex="1" parent="1">
          <mxGeometry x="40" y="70" width="150.98" height="70" as="geometry" />
        </mxCell>
        <mxCell id="oTmP2A5p6jje87KI3bVO-7" style="edgeStyle=orthogonalEdgeStyle;rounded=0;orthogonalLoop=1;jettySize=auto;html=1;entryX=0;entryY=0.5;entryDx=0;entryDy=0;flowAnimation=1;" edge="1" parent="1" source="oTmP2A5p6jje87KI3bVO-2" target="oTmP2A5p6jje87KI3bVO-6">
          <mxGeometry relative="1" as="geometry" />
        </mxCell>
        <mxCell id="oTmP2A5p6jje87KI3bVO-2" value="Scrapping de Dados sob Demanda&#xa;" style="shape=image;verticalLabelPosition=bottom;labelBackgroundColor=default;verticalAlign=top;aspect=fixed;imageAspect=0;image=https://upload.wikimedia.org/wikipedia/commons/thumb/c/c3/Python-logo-notext.svg/1200px-Python-logo-notext.svg.png;" vertex="1" parent="1">
          <mxGeometry x="75.49000000000001" y="262.5" width="80" height="80" as="geometry" />
        </mxCell>
        <mxCell id="oTmP2A5p6jje87KI3bVO-10" style="edgeStyle=orthogonalEdgeStyle;rounded=0;orthogonalLoop=1;jettySize=auto;html=1;exitX=0.5;exitY=0;exitDx=0;exitDy=0;entryX=0;entryY=0.5;entryDx=0;entryDy=0;flowAnimation=1;" edge="1" parent="1" source="oTmP2A5p6jje87KI3bVO-6" target="oTmP2A5p6jje87KI3bVO-8">
          <mxGeometry relative="1" as="geometry" />
        </mxCell>
        <mxCell id="oTmP2A5p6jje87KI3bVO-6" value="bucket-techchallenge-ingestao-bovespa-g222&#xa;&#xa;- anomesdia_raw_file.csv" style="shape=image;verticalLabelPosition=bottom;labelBackgroundColor=none;verticalAlign=top;aspect=fixed;imageAspect=0;image=https://conn-afd-prod-endpoint-bmc9bqahasf3grgk.b01.azurefd.net/releases/v1.0.1747/1.0.1748.4181/amazons3/icon.png;" vertex="1" parent="1">
          <mxGeometry x="339" y="265" width="75" height="75" as="geometry" />
        </mxCell>
        <mxCell id="oTmP2A5p6jje87KI3bVO-12" style="edgeStyle=orthogonalEdgeStyle;rounded=0;orthogonalLoop=1;jettySize=auto;html=1;flowAnimation=1;" edge="1" parent="1" source="oTmP2A5p6jje87KI3bVO-8" target="oTmP2A5p6jje87KI3bVO-11">
          <mxGeometry relative="1" as="geometry" />
        </mxCell>
        <mxCell id="oTmP2A5p6jje87KI3bVO-8" value="lambda-trigger-glue-job" style="shape=image;verticalLabelPosition=bottom;labelBackgroundColor=none;verticalAlign=top;aspect=fixed;imageAspect=0;image=https://upload.wikimedia.org/wikipedia/commons/thumb/5/5c/Amazon_Lambda_architecture_logo.svg/1200px-Amazon_Lambda_architecture_logo.svg.png;" vertex="1" parent="1">
          <mxGeometry x="414" y="75" width="75" height="75" as="geometry" />
        </mxCell>
        <mxCell id="oTmP2A5p6jje87KI3bVO-16" style="edgeStyle=orthogonalEdgeStyle;rounded=0;orthogonalLoop=1;jettySize=auto;html=1;flowAnimation=1;" edge="1" parent="1" source="oTmP2A5p6jje87KI3bVO-11" target="oTmP2A5p6jje87KI3bVO-15">
          <mxGeometry relative="1" as="geometry" />
        </mxCell>
        <mxCell id="oTmP2A5p6jje87KI3bVO-28" style="edgeStyle=orthogonalEdgeStyle;rounded=0;orthogonalLoop=1;jettySize=auto;html=1;flowAnimation=1;" edge="1" parent="1" source="oTmP2A5p6jje87KI3bVO-11" target="oTmP2A5p6jje87KI3bVO-27">
          <mxGeometry relative="1" as="geometry" />
        </mxCell>
        <mxCell id="oTmP2A5p6jje87KI3bVO-11" value="glue_job_etl_ingestion_ibovespa_details" style="shape=image;verticalLabelPosition=bottom;labelBackgroundColor=none;verticalAlign=top;aspect=fixed;imageAspect=0;image=https://miro.medium.com/v2/resize:fit:400/1*rW8YuPB0NEwjixYRoerZRg.png;" vertex="1" parent="1">
          <mxGeometry x="610" y="75" width="75" height="75" as="geometry" />
        </mxCell>
        <mxCell id="oTmP2A5p6jje87KI3bVO-30" style="edgeStyle=orthogonalEdgeStyle;rounded=0;orthogonalLoop=1;jettySize=auto;html=1;flowAnimation=1;" edge="1" parent="1" source="oTmP2A5p6jje87KI3bVO-15" target="oTmP2A5p6jje87KI3bVO-29">
          <mxGeometry relative="1" as="geometry" />
        </mxCell>
        <mxCell id="oTmP2A5p6jje87KI3bVO-15" value="glue_job_etl_ingestion_ibovespa_aggregated" style="shape=image;verticalLabelPosition=bottom;labelBackgroundColor=none;verticalAlign=top;aspect=fixed;imageAspect=0;image=https://miro.medium.com/v2/resize:fit:400/1*rW8YuPB0NEwjixYRoerZRg.png;" vertex="1" parent="1">
          <mxGeometry x="920" y="75" width="75" height="75" as="geometry" />
        </mxCell>
        <mxCell id="oTmP2A5p6jje87KI3bVO-33" style="edgeStyle=orthogonalEdgeStyle;rounded=0;orthogonalLoop=1;jettySize=auto;html=1;flowAnimation=1;" edge="1" parent="1" source="oTmP2A5p6jje87KI3bVO-27" target="oTmP2A5p6jje87KI3bVO-31">
          <mxGeometry relative="1" as="geometry" />
        </mxCell>
        <mxCell id="oTmP2A5p6jje87KI3bVO-27" value="Glue Table&#xa;tb_cotacao_ibovespa" style="shape=image;verticalLabelPosition=bottom;labelBackgroundColor=none;verticalAlign=top;aspect=fixed;imageAspect=0;image=data:image/png,iVBORw0KGgoAAAANSUhEUgAAALkAAAC4CAYAAAC/8U35AAAAAXNSR0IArs4c6QAAAARnQU1BAACxjwv8YQUAAAAJcEhZcwAADsMAAA7DAcdvqGQAAB1hSURBVHhe7Z1pcFzXeabfu/a+o7HvIBYuAClRJCWRtCTKlmRpbI3jSBPHVZ44FY1rKk7NTI2dmkqlylVx/sWpykzG8TgzcXkq5VKicWzZWmxLVixTXESJkkiKO0EQIPYG0Pt29/lxGyDZfW8DUAPoxu3zVF0ufQAS3f30ued83znfoTRN02CCImtIRiWc/fUCLp2JY/pmFpmEVPxla6ZrpxsvfHsQvhAPhqWKm3HqtQhOvjKPW5dSxU0EQlm+/p1d2HXIX/wwAIAufmAZTQPScQlX3ovjtz+Zw+j5ZEWCr4VsSkYuLRc/TCBUhKnksqhieiyLt/9lFsmoCFUx7fA3DFXRoCrFjxIIlWEq+fTNDM4fX8LseBayvPmCEwibBWU0Js8kZJx+PYLf/nQWS7NCcfMK4XY7GlrscHnZ4iZDGtrsOPZ8C5xuFjRTOiZ/40fTOPVqBJGpXHET7C4GXUNuOD0sGIPvJVgbSVSRikmYuJqGYtDplhuTG0p+62IKb/9kDh+8tQhVvbeZogCOpzFwvw/9+7xo6nDA5mTu+Roz7C4Gbb1OMBwNysDTcpIHmmx4/PkWNHY4wPGmNyCCRcllZExey+Ctl2Yg5tXi5vVLfvKVeZx6LWIY5eDtDJq7HHj6D9rRN+yFy7e2XnwtlJO8qdOBL32jF12D7jV/qAjWIRWXcPVsHC/+1Rjy2dKJWznJDbvEpVkBySWx+GEAgDfI4f7HQtixd2MFJxA2C0PJsynZ8NMCAE4Pi949HjJkIGwbDE3NZRTDcQ8AsBwFb4g3nDgSCLWIoeSyqJqGDSmaAstTAHGcsE0wlFxVNWhFURUCYbtiKDmBYCWI5ATLQyQnWB7DZND3/+wqzr8TLX4YANA34sVXv9WvL5fd4AjLZiWDJFHFwnQeQlaBahw0IlQBjqfgCXAINNqKm0qoJBlUF5Kn4hLefT2CxRkBolD6AhGqgyfAYcdeL0YOB4ubSiCSr8LiTB4vfmcM45dTyGVKXyBCdQi32fHQ04146ivtxU0lVCI5GZMTLA+RnGB5iOQEy0MkJ1ieupCcoigwDAWGo8FyFLlq5GJYGhS9scELI+oiupJJyHj/rQVE5wTIQsnTJVQJl59Fz24Pdh00jorcTSXRlbqQXJY0xBcFSHmVJINqCJaj4PSw8AS44qYSiOQEy1OJ5HUxJifUN0RyguUhkhMsD5GcYHnqYuKpKhqyaRmKpKH02RKqBc1Q4O007Gt4PyuZeNaF5PmMgusfJZCMSpAlEkOsFRxuFs1dDnQNuYubSiCSrwJZalubkKW2BMIGQSQnWB4iOcHyEMkJlqd+JKf04uoUpddYJ1ctXBsbuDCjLqIr8UURv/rHaczeykLIlc7MCdUh0GjDnocDePiZxuKmEiqJrtSF5KKgYmYsi1xa3pIDvghrg7cz8Id5hNvsxU0lEMkJlqcSyetnTE6oW4jkBMtDJCdYHiI5wfIQyQmWh0heJRRZg5hXIWSVe65cWkY6LiGxJK7ryqbkkn9LyCpkaTEJIVaP2IKI5JJYkpzKZRQkFkWkotI9j69Gc7fDsLRDoNG2pjh0rVNJCJFIvkFoGiDmFcQiIuILAtJxGdm0jOSShGxK/z0ZEyEJes+qyBoUWSs51l1VC4+bnL5nBmejDY+d1KtV3blhBxptcPlYOFwMmjocAIBgsw3+MA+nl4UvxN/13bUDkXwLUVV9mJGKSYjNC0gsiUjFJKRiEtIJWT/oN6NAzCuQBBX5nApJKAxLcgqUKmdcHS4GnJ0Bx1Nw+/Se3+FmYHex4O00XB4WvgYe/gYevsLlCXBwuBjDD9FWQSTfAhJLIhKLEmIRAUuzeSSjEqLzAhKLIpJRXfJcWt7We0gpSt93GQjrPbs/XJA8yCHYZEOo2YZAkw0ePweG3dj3fjUqkZxMPE1QVQ35rILovIDZW1lcPB3DOz+bw2s/mMSP/3Ycb/xoGmd/vYgb55KYv51DNrW9BUdhyKXIGhZn8xi9kMTZtxbx1j/P4OXvTeDl/zWBt388i4sno5i6kUF0XkAuU/0701ogkpuQzyi4+XEKr/7DJP7uT6/ipb+5hVOvzmP6Zqb4S+uC6JyAs28t4qX/fgt//+fX8PoPJzF6PolsUi7+0pqDSH4XmgbIsoaPT8bw0+9N4Kd/N46Lp2NILImQRRWapn9NvbL8+iSjIi6ciOEn3x3Hz/7+Nj4+GYWYLx1C1ApE8gKaBmQSEk69GsGJV+Zx8XQMs+M5pON6GYvNlJumqZVQX2O7o6Ir2GyD3clsXt3vwpAmHZcwfzuHS+/GcOKVeZz55QLEvFKTx9WTiWeBxJKIq2cT+M3/m8X87VxJ/Ho9MCwFjqdhczKwOfRIhs3BgLczYFi9AL3Nof8ZBcn9jTxYjkalm2UUSUM6KUPI3RFOljRkknrcXRJUiIIe8clnFCiypkeDBOUTf5BtDgZtfU488eU27NjrhdPDFn9JxVQy8SSSF2LWV8/G8foPpzBxJV0SuzaDpimwvC40y+unWHA8DbuThdvPrkQnnG49LOcNcuDtNBxuPR7N27fmRipkFczd1l/TdExCOiEhHZcRnRcg5lVE5wUkoxIkUYUiqZBE/UMgCiqUNcbrbQ4GXUNu/M4fd6Gtz7Xh0RcieYVE5wW8+4sIXvvB5Lp6M6eHRVOnA+19TjR3O9DY4UBLjxNuHweaubOfFND3mFL6L/pfN/alW5WV56Vp0KAPO5Yf0zQgn1WQWBQQnRMwM5bFxNUMJm+ksTQr3PWvlIeigef+pBt7j4YQaFr9lOX1UInkW9OV1Dh67FtYVXCnh0X3Tjce+UIzvvynffgPfzmI3/9mHz7z5TbsP9aA3j0e+EI8OJveqzMsBZopXDQFir6ziXerWdk8TOs/C83oP9/y8MnpYRBud6BvxItDTzXi2a914g+/NYAXvj2IJ7/SjqEH/IbLBu5GU4G523mk4rUVcSGSA8gmZaTi5deKBJtsuP+xED79pVY89EwTRg4H0TfiRVufEw2tdnhDPBxuFgyr9+DbDZqmwNtoOD36MKup04GunW7sPODHwSfC+PTvtWLv0SBCzeV76FRMqmg+sxkQyQEIOT3tXg668EopsgZRUJDLyshn9YmbVZElDbm0DDF3ZzXjaqn9fEaBLNbWykciucEiJiMWZwWc+Pn8Srbz/TcXcf2jBKZvZrA4k0d8UUQ6Lq2Iv9rQp5ZQVQ2SoCKXUZCO60sXIpM5jF9O4fyJKN7+lzn8+G/HceaXC1iYzhd/+z1wNhr0Bk86K6X8O1sn7Njnxa5D/jUVu0nHJVw+E8ev/nEKP/yLG/jef7uKH/7lDbz2D5M49do8bnyUQCwibKvSF7m0gtmJHC6fieGdn83jx/9jHP/zG1fw3W9ewU++O4Gzby5gaTYPaZUemqIoHHqyAZ0DruKmqkKiK4Ui/dc+TOAX/3cKYxdT6xKUZvSwIW+nwdn03212ZuXPDa12ON0s3H59JR/DUmjstINh9f7F4WLQ0Lqx672XE1vphLwSFkwnZWTiMmRJRTouI74oQsgriBXCiMthQ0lQIeT0FZOytPbXweZk0L3Tjd/9ejdaep2gNzgZVUl0hUheIL4o4uLpGF7+3jhyGbXizB1FAQxLw+VjwdtoPSlko0HTgCfArWQkORu9suTVCF+IA28vfb5CTkE2JZuIqOnzjJw+dFJVDWJOhZBXoMr69+bSMmRZQzZVecElmqEQbrfj2a91YWAfSQaVpZqSaxqwNJvHi399E+OXM8ilayMMFgjbYHOVPt98RkY6IdfEJM8b5LDrwQC+9F97NyRra0QlkpMxeQGKAlw+DoeebIS/gS+Mzzfh3VonsQUBc+PZkiu+oC8aqzYUDTR1ObDvaHDTBK8UIvld2J0M9h4NItxmB2ej9bTgyq8EvTIwCq+I/qrY7Axae1wYesBXk4KDSH4vFKUXodx50IfmLn3/Iwz6c4rSPxAcT2/4BKuWYFh9Er3yCqy4fecu17XTjb4RDzhb6ZCqViCSF0FRwOD9PrTtcILjzV8eRdaw92gQx55vwdFnm7D3SBA9uzxobLfDYTCGrmXsLgaBRhva+lzYecCPh55pxCNfbEH/Pm9h54/xvYy3M+jZ7UH3TnfN9uIgkhvT2OFA56DbNLSnaYAkqgg227D3aBCPfrEFR/9tEx7+N4148OlGHHwijP3HGjByJIihB3zo2e1Be78LzV0OhFps8AY5eAIcXF598/BmwHJ6it4T4OBr4BFut6Olx4mOARd6hz0YOuDHyJEg9h9rwMHPhPHgZ8N46JlGHHm2CY/+TjN2H/LD18CVrdvS3u9C9y43gquk+qsNia6YMHEljVOvz+PkzyOmS287Blx4/N+1Yv+xhpKlpbKkIpuSEYuISCyISCckZJIy0nEZqZi0sus/nZCQXBJXvk/V9Lj9esJ6LEfri7+WH6CowvJerrCenYYvzMPpZuBw3xHfE+AMNyUrsoZ/fWkGp1+PYG6i9L1YDo9+4T92Ye/R4JZIXkl0hUhugiSqOPfbKF76m1vIpiTDND3NUHj0iy049lyL4RutaYCm6il+TVv+fXmZa2FSW7SlLp+RkViSkIrdEb8cNE3pQyQPu5JgwvKoufBXqnCMDO46xmR5RWLJMEMDFqbzePn7Ezh/PGr4AedsNMLtdvzBn/ejrde18v9sJpVIvgU/3vaE5Wg0ddoxfDhQ0tMtoyoaJq6mcP2jRHETUOjxlpe0shytZ0aXs6IOfdeQ3cnA4bpz+UI8Wnuc6Bv2runq2eNBsMkOl1fPqC5fdpf+7+s7kvRsLMfTYDl6ZQlwieDQP3znT0QxP5EzFBwAXF4WD322Ed4gvyWCV8o2+BGrA0XplaWGDwfg9OibIIyYm8hh9EISqagEzXz4umaWz5t3eti1XW4WDGcs7HpRZA3xRRHXPogjGjHeLMHb9V58+OEgnO7Nv6NuBETyMri8HDoH3OgcdMFuMkTKJGRM38xi7FIKirIBlleRXEbG9Q+TmB3PIW9yPLuvgUffsBeNHXawZaJPtcT2+CmrBEXpt+b9jzfA18Cb9pbROQEf/mYJuYyyIb15NVBVDYlFCWd+FTGtpUIzFFq6nRh+OFDcVNMQyVfB5qAxcmQ5C2rcm6fjEkYvJDE9mkG+xnbFrJVcSsHsWBY3ziVNd/Z4gxza+13oHHIXN9U0RPJVoGgKdgeNnQfuzYLezfLS1uMvz2NptvymglplbiKLj09Fy2746N3jwY4Rz4ZH1TYbIvkaoGgKA/f70DHggs1h/JLJoobR80lM3cggvcp+0Vojl9bnFaMfp4qbVnD7OfTs9qCtr7Y2RKwF43eMUEJThwM9ezxo7nIWNwGFMW06LukFQCe3V28+P5HD+JU0YvPGERUA6Bx0ob3fteqO/VqESL5GaIbCjmEPdh3ym8bNAeDaBwlMXk+XTYfXEoqs4cb5JMYvG/fiFKXvgR05Elwp2r/dIJKvg4ZWO3p2exBqtZuuPowviLh9LYOZsdKsba2haXpkaPxKGpEp47sPy9No7HSgb9gLX2j79eIgkq8PmqEQbrPjvkdCYHljyVVVw8TVNK59EC9uqjlUVcOp1yOYupExXSvj9nF48KlGeIN3tuxtN4jk68TXwGPnAR/8YZtpGYvonIDxy2ksTOVN5ak2oqBibjyH6x8lEF80XidjczBo6nRg+HBg2y0fvhvjd4lgit3JoKXbWajeavzGCzkFcxM5XHk/brLRuPpkkzIunIxiaSa/clhXMcEmGwb3+9DU4dg22U0jtu9PXkVsTgYHPtOAYJPN9BYeiwj48O0lfTe8yUKnaqEqGmIRAe+/uYBs2jjxw7AUOgZd2H8sVNy07SCSfwI4nkbfsAetfS64vMblF5Z789HzSWRM0uTVIr4gYuxiCpHJvGkUqKnTge4hN4IbXJ22GhDJPwF6WI3GroN+tPYax801DcinZbz/1iLiEeMxb7WYHc/i41Mxfb5gcpPRl/J6TFdfbieI5BXQs9uNjgGXaTEdWdIwfimFqZsZpBO1kQVNLImYvJHB9Kj5AV+hFhu6d7oRbt+ecfFiiOQVEGi0oWvQjeZuYxlUVUMqJmH0XBLzt43j0FvN5PUMxi+nTYdQFAUM3OdDa58T9m0cUbkbInmFdA66MLTfX/a2fu1DPQta7TLPsqTixrkkxq+ki5uAguC8ncHw4QDCbcabuLcjRPIKCbXa0b1L39lvJvqdLGi2uGnLUFUNE1fSmBrNIB0zHjrZXSz693nR0uOEw208BNuOEMkrhCkUu9z3SBAsZyy5qmi4fS2Nq1XMgqoKcO6dKCK3zfduevwsHnwqrBckNX4q2xIi+QbgC/HYfSiAQKN5FnRpVsCtS2ksTG99FlQUVMxNZDH2cQpJk17c6WHR2uvEjn2+QtUs62D8jhDWhZ4FdaBvxFM2CzpfyIKuVsx+o8kmZVw8FcOiSXaTovTFZ4P7ffAGS+uwbHeI5BuEzcHgwKfDCDbbTMs0xCKFvaDprdsLqqp6dvO9NxeRM9mczNsYdPS7sPvB7bV3c62YvB2E9cLyNHqHPWjrdcHlNV6SKuQUzI1nMXo+iXThhOTNJh7Rs5sLUzkoJtnNziEX+u/zWiK7aQSRfIOgKD3dP3TAj7YyWdBcWsHp1yP6CkWTCeBGMjOexcXTMdO9mwxDoW/Ei57d1shuGkEk32B6C1lQsxCcLKkYv5LCrUspJBY2N92fWBIxeT2DKZPsJkUBLb1OdA64EGjki5stA5F8gwk02dA55EaLSRZ0uTe//mEC02NZw951o5i8nsHElTQyCePsJsNS2H0ogOYup2lUyApY95lVkc4BF4YeKJ8FHb2Qwu1rGYh548lgpSiyVja7STMUHG4Wex7yI9RqzbH4MkTyTSDUYkfP7vJZ0HxWxu1raYyVKQPxSVEVDeNX0mXLY7h9LPZ9KoRgk3ls3ypY+9lVCYbV94Lu+1TQ9LQKTQWmRjO4+kFiw9e0KIqGc8eXEJnMGSaeKJqCL8TjwBMNcPlYS2U3jTB+BwgV4y1kQf2NvGlPmVyScPuavp7EbPPCehEFFfO3c7h5IWma3fSF9EJBHf0u0w+hlbD+M6wSdieDll4nevd4yqw3V7E4k8eFd6IQcqrpBob1kEnIuPRuHEszgmF2k2YotPa6MHw4AJuDMd2+ZyWI5JuIzUHjwKfDCDXbTIcEiUUJ545HkY5LhUOoPjmqqiG+IOC9NxZMs5tON4uuITcGHzA+lcGKEMk3EZbTs6CtfU64TI4WV2QViSURV96LIxmtLG5+T3ZTLu3FAaBvxIPePe5tV7SzEojkmwhFAbyNxtADvrJZUDGv4IN/XcLijFBRFnTmVhaX3tXLYBjF3+1OBn0jXrT3u0zvLFaESL4F9Oz2oHuXG26/WW+uYWo0g9vX0kiYFPpZjWRUwuT1DCZvmMTFaQpdQ26079ieRTsrgUi+BQSbbOjd40XngHHZY03TF29d/yiB6ZufLAs6eT1tmt2kKICz0xg+HEBju3kdR6tCJN8iune6MfxwwDQ5BACj51OYuJo2jIqUQ1U0XPswifGrxr04w9HwN/AYOuCH38JrVMwgkm8RLh+Lth0u9O7xmMbN81kFk9czuHkhWdxkiqpoGL+cxvSoeXbTG+Bw8IkGePxc3fXiIJJvHTRDoaHFjvsfC5keNa6pGqZHM7h6du1ZUFnWcO6dJUSmjLObLEcj2GzDvkdC27poZyUYv9qETcHlZ9G/z4emToep6IlCFnT65upZUFFQEZnMYfRcEsmocS/uD/Po3eNBY4fD9A5iderzWVcJjtd71Z0H/PAGjcfGy1nQ88tZ0DJkEhIuvRvH4qxxdpNhKbT2OrHzoF+Pi9ffSAUgkm89vI3GA483INRSJgu6JOHD3+hZUKMhCAoRmVhExHtvLJgeLOvysegccqFvxFvcVFcQybcYhqHQ0GbTj2VpMa5SpcgqUlE9C5pYMo6bL83mceN8EgtTedPsZu9uD7oG6yu7aQSRfKspVMQd2u9D+w7zLKgsq4gvihDzxgJnkjKicwJkSS2Jq1MU4PSy2LG3/rKbRhDJq0TbDhc6B93whYzH5gAgi6pp6QpZ0kx3FVE0hbZeJ1r76i+7aQSRvEq4vCyaux1o6jTeC1oJNA209brqNi5eDJG8irg8HHwNpKfdbIjkBMtDJCdYHiI5wfIQyQmWh0hOsDxEcoLlIZITLA+RnGB5iOQ1iqbq61NiEQGxiIh0XEIuoyCdkBCLCIgvCMiljdP6hHshktcosqzh2kcJHH95Did+PoeLp2IYv5zCxdMxHH95Hqdei2D88sYXC7UiRPIaRVM1pKISrn+UwMlX5vHqDybxT389hlf/zyROvTaPWxdThjvzCaUQyauI3c2Y1mJBoR5LLq0gGZUQnRewMJ1HdF5AKiohn1XKlJWj4PAwYHmyOAtE8uriDXIIt9n1IwU3yEeK0re9hVrtsDvrc+NyMUTyKuIJcGjtdaKl2wmOpyve3EBR+lGLzV0OtPY44TQ5t6jeIJJXEZqm0NbnwjN/2AF/2Fa28NBaYDgarX1OPPu1TrT2OMDZyNsLInn1cbgY9N/nxR/9xQCe+8892PdIEN6g+Ti9GIrSyzEPHw7gi3/chd/7L73o3uWpi+L6a4W8ElWGZig43Sza+pwYeTiIY8+14nN/1InHnmvByOEgOgbc8Id58HYGKJwVGmi0oX2HC4P7fTj0ZBife6ETjz/fipEjQbT0OGF31kdx/bVCJK8RaJqCP8xjx14vDnymAUc+34TDn2/Ckc834cjnmgu/3/VY4Tr8uSYceiqM/vt8CDTa9Eks4R6I5DUIb2fQ0u3E8MMBHH22CU9/tR2/+yfd+P1v9uH5/9SDz/77dnzqC83Yf6wBfSNevecmbptCJCdYHiI5wfIQyQmWh0hOsDxEcoLlIZITLA+RnGB5KE0rrokKfP/PruL8O9HihwEAfSNefPVb/fCF+A0vCfzGj6Zx6tUIIlO54iY0dTrwpW/0omvQDds6V9eJgoqZsSxyaRnqGo8pIWw+nF3P3obbjEtY300qLuHq2The/Ksx5LOlO6K+/p1d2HXI+JTpupA8GZVw/OU5RCZzkExKIRO2Hm+Ix+B+H+5/LFTcVAKRfBUWZ/J48TtjGL+cMj1znrD1hNvseOjpRjz1lfbiphIqkZyMyQmWh0hOsDxEcoLlIZITLE9dSE5RFDieBm9nwNtpctXKZaO3ZP17XURXEksifv1PM5gbz0HMlc7MCdXBF7Zh94N+HHoyXNxUQiXRlbqQXJY0JBZFiHkFKgmT1wwsR8HpYdd0Qh2RnGB5KpG8LsbkhPqGSE6wPERyguUhkhMsT11MPBVZQzouQZLMz6onbD0MS8HuZOD0rF6zsZKJZ11Ink3JuHAiiviCCEkkltcKLi+LjgE3+vd5i5tKIJKvAllqW5uQpbYEwgZBJCdYHiI5wfIQyQmWpy4kpygKLEeD5WlwNnLVzMXTFZ+usRbqIrqSWBTx5ov6UlshXzozJ1QHf5jHngcDOPQUWWoLVCi5LKmIzi0vtS15uoQqwXI0XD4WvhBf3FQCkZxgeSqR3HBMTlGU+ckFmqZXoSr5aBAItYmh5AxHmU4Ilk8JNrgBEAg1iaHkdqe+4dcIUVARmc5BITUFCdsEQ5Pdfg4Ok9N84wsizvxiAcmoBNX0bHcCoXYwnHi++4sFnHx1HjcvJIubQNP65tODT4ax+5AfoRYb6DWWFWA5Gt4AB5o2Pku+3MSzodWOz7/QgdZeF3iH4WeTYGEyCRljHyfx8/89CcGg4kK5iaeh5FOjGRz/6RzO/GoBklC6NJWiAJuTxa6DfjR32cGwa5PO18DhvkcbYHPQuuhFlJPc7ecwcjgAXwMPllvb/0ewDmJewcJ0HhdOxCBLpU6uW3JF1nDmlxG89c8zmJvIofQrPhldO9144duDevjRoPcvJzmBUI5ykht2iQxLYeB+Hw4+2QiGpc3DiQTCNsBQcgDwNfAYuM+L+x4N6ue6EwjbFFPJOZ5GU6cDD362EbsO+eEL8aAMxtEbyXKNPAJhI/n/zkPZFC1gRTMAAAAASUVORK5CYII=;" vertex="1" parent="1">
          <mxGeometry x="760" y="220" width="75.4" height="75" as="geometry" />
        </mxCell>
        <mxCell id="oTmP2A5p6jje87KI3bVO-32" style="edgeStyle=orthogonalEdgeStyle;rounded=0;orthogonalLoop=1;jettySize=auto;html=1;flowAnimation=1;" edge="1" parent="1" source="oTmP2A5p6jje87KI3bVO-29" target="oTmP2A5p6jje87KI3bVO-31">
          <mxGeometry relative="1" as="geometry" />
        </mxCell>
        <mxCell id="oTmP2A5p6jje87KI3bVO-29" value="Glue Table&#xa;tb_cotacao_ibovespa_aggredated" style="shape=image;verticalLabelPosition=bottom;labelBackgroundColor=none;verticalAlign=top;aspect=fixed;imageAspect=0;image=data:image/png,iVBORw0KGgoAAAANSUhEUgAAALkAAAC4CAYAAAC/8U35AAAAAXNSR0IArs4c6QAAAARnQU1BAACxjwv8YQUAAAAJcEhZcwAADsMAAA7DAcdvqGQAAB1hSURBVHhe7Z1pcFzXeabfu/a+o7HvIBYuAClRJCWRtCTKlmRpbI3jSBPHVZ44FY1rKk7NTI2dmkqlylVx/sWpykzG8TgzcXkq5VKicWzZWmxLVixTXESJkkiKO0EQIPYG0Pt29/lxGyDZfW8DUAPoxu3zVF0ufQAS3f30ued83znfoTRN02CCImtIRiWc/fUCLp2JY/pmFpmEVPxla6ZrpxsvfHsQvhAPhqWKm3HqtQhOvjKPW5dSxU0EQlm+/p1d2HXIX/wwAIAufmAZTQPScQlX3ovjtz+Zw+j5ZEWCr4VsSkYuLRc/TCBUhKnksqhieiyLt/9lFsmoCFUx7fA3DFXRoCrFjxIIlWEq+fTNDM4fX8LseBayvPmCEwibBWU0Js8kZJx+PYLf/nQWS7NCcfMK4XY7GlrscHnZ4iZDGtrsOPZ8C5xuFjRTOiZ/40fTOPVqBJGpXHET7C4GXUNuOD0sGIPvJVgbSVSRikmYuJqGYtDplhuTG0p+62IKb/9kDh+8tQhVvbeZogCOpzFwvw/9+7xo6nDA5mTu+Roz7C4Gbb1OMBwNysDTcpIHmmx4/PkWNHY4wPGmNyCCRcllZExey+Ctl2Yg5tXi5vVLfvKVeZx6LWIY5eDtDJq7HHj6D9rRN+yFy7e2XnwtlJO8qdOBL32jF12D7jV/qAjWIRWXcPVsHC/+1Rjy2dKJWznJDbvEpVkBySWx+GEAgDfI4f7HQtixd2MFJxA2C0PJsynZ8NMCAE4Pi949HjJkIGwbDE3NZRTDcQ8AsBwFb4g3nDgSCLWIoeSyqJqGDSmaAstTAHGcsE0wlFxVNWhFURUCYbtiKDmBYCWI5ATLQyQnWB7DZND3/+wqzr8TLX4YANA34sVXv9WvL5fd4AjLZiWDJFHFwnQeQlaBahw0IlQBjqfgCXAINNqKm0qoJBlUF5Kn4hLefT2CxRkBolD6AhGqgyfAYcdeL0YOB4ubSiCSr8LiTB4vfmcM45dTyGVKXyBCdQi32fHQ04146ivtxU0lVCI5GZMTLA+RnGB5iOQEy0MkJ1ieupCcoigwDAWGo8FyFLlq5GJYGhS9scELI+oiupJJyHj/rQVE5wTIQsnTJVQJl59Fz24Pdh00jorcTSXRlbqQXJY0xBcFSHmVJINqCJaj4PSw8AS44qYSiOQEy1OJ5HUxJifUN0RyguUhkhMsD5GcYHnqYuKpKhqyaRmKpKH02RKqBc1Q4O007Gt4PyuZeNaF5PmMgusfJZCMSpAlEkOsFRxuFs1dDnQNuYubSiCSrwJZalubkKW2BMIGQSQnWB4iOcHyEMkJlqd+JKf04uoUpddYJ1ctXBsbuDCjLqIr8UURv/rHaczeykLIlc7MCdUh0GjDnocDePiZxuKmEiqJrtSF5KKgYmYsi1xa3pIDvghrg7cz8Id5hNvsxU0lEMkJlqcSyetnTE6oW4jkBMtDJCdYHiI5wfIQyQmWh0heJRRZg5hXIWSVe65cWkY6LiGxJK7ryqbkkn9LyCpkaTEJIVaP2IKI5JJYkpzKZRQkFkWkotI9j69Gc7fDsLRDoNG2pjh0rVNJCJFIvkFoGiDmFcQiIuILAtJxGdm0jOSShGxK/z0ZEyEJes+qyBoUWSs51l1VC4+bnL5nBmejDY+d1KtV3blhBxptcPlYOFwMmjocAIBgsw3+MA+nl4UvxN/13bUDkXwLUVV9mJGKSYjNC0gsiUjFJKRiEtIJWT/oN6NAzCuQBBX5nApJKAxLcgqUKmdcHS4GnJ0Bx1Nw+/Se3+FmYHex4O00XB4WvgYe/gYevsLlCXBwuBjDD9FWQSTfAhJLIhKLEmIRAUuzeSSjEqLzAhKLIpJRXfJcWt7We0gpSt93GQjrPbs/XJA8yCHYZEOo2YZAkw0ePweG3dj3fjUqkZxMPE1QVQ35rILovIDZW1lcPB3DOz+bw2s/mMSP/3Ycb/xoGmd/vYgb55KYv51DNrW9BUdhyKXIGhZn8xi9kMTZtxbx1j/P4OXvTeDl/zWBt388i4sno5i6kUF0XkAuU/0701ogkpuQzyi4+XEKr/7DJP7uT6/ipb+5hVOvzmP6Zqb4S+uC6JyAs28t4qX/fgt//+fX8PoPJzF6PolsUi7+0pqDSH4XmgbIsoaPT8bw0+9N4Kd/N46Lp2NILImQRRWapn9NvbL8+iSjIi6ciOEn3x3Hz/7+Nj4+GYWYLx1C1ApE8gKaBmQSEk69GsGJV+Zx8XQMs+M5pON6GYvNlJumqZVQX2O7o6Ir2GyD3clsXt3vwpAmHZcwfzuHS+/GcOKVeZz55QLEvFKTx9WTiWeBxJKIq2cT+M3/m8X87VxJ/Ho9MCwFjqdhczKwOfRIhs3BgLczYFi9AL3Nof8ZBcn9jTxYjkalm2UUSUM6KUPI3RFOljRkknrcXRJUiIIe8clnFCiypkeDBOUTf5BtDgZtfU488eU27NjrhdPDFn9JxVQy8SSSF2LWV8/G8foPpzBxJV0SuzaDpimwvC40y+unWHA8DbuThdvPrkQnnG49LOcNcuDtNBxuPR7N27fmRipkFczd1l/TdExCOiEhHZcRnRcg5lVE5wUkoxIkUYUiqZBE/UMgCiqUNcbrbQ4GXUNu/M4fd6Gtz7Xh0RcieYVE5wW8+4sIXvvB5Lp6M6eHRVOnA+19TjR3O9DY4UBLjxNuHweaubOfFND3mFL6L/pfN/alW5WV56Vp0KAPO5Yf0zQgn1WQWBQQnRMwM5bFxNUMJm+ksTQr3PWvlIeigef+pBt7j4YQaFr9lOX1UInkW9OV1Dh67FtYVXCnh0X3Tjce+UIzvvynffgPfzmI3/9mHz7z5TbsP9aA3j0e+EI8OJveqzMsBZopXDQFir6ziXerWdk8TOs/C83oP9/y8MnpYRBud6BvxItDTzXi2a914g+/NYAXvj2IJ7/SjqEH/IbLBu5GU4G523mk4rUVcSGSA8gmZaTi5deKBJtsuP+xED79pVY89EwTRg4H0TfiRVufEw2tdnhDPBxuFgyr9+DbDZqmwNtoOD36MKup04GunW7sPODHwSfC+PTvtWLv0SBCzeV76FRMqmg+sxkQyQEIOT3tXg668EopsgZRUJDLyshn9YmbVZElDbm0DDF3ZzXjaqn9fEaBLNbWykciucEiJiMWZwWc+Pn8Srbz/TcXcf2jBKZvZrA4k0d8UUQ6Lq2Iv9rQp5ZQVQ2SoCKXUZCO60sXIpM5jF9O4fyJKN7+lzn8+G/HceaXC1iYzhd/+z1wNhr0Bk86K6X8O1sn7Njnxa5D/jUVu0nHJVw+E8ev/nEKP/yLG/jef7uKH/7lDbz2D5M49do8bnyUQCwibKvSF7m0gtmJHC6fieGdn83jx/9jHP/zG1fw3W9ewU++O4Gzby5gaTYPaZUemqIoHHqyAZ0DruKmqkKiK4Ui/dc+TOAX/3cKYxdT6xKUZvSwIW+nwdn03212ZuXPDa12ON0s3H59JR/DUmjstINh9f7F4WLQ0Lqx672XE1vphLwSFkwnZWTiMmRJRTouI74oQsgriBXCiMthQ0lQIeT0FZOytPbXweZk0L3Tjd/9ejdaep2gNzgZVUl0hUheIL4o4uLpGF7+3jhyGbXizB1FAQxLw+VjwdtoPSlko0HTgCfArWQkORu9suTVCF+IA28vfb5CTkE2JZuIqOnzjJw+dFJVDWJOhZBXoMr69+bSMmRZQzZVecElmqEQbrfj2a91YWAfSQaVpZqSaxqwNJvHi399E+OXM8ilayMMFgjbYHOVPt98RkY6IdfEJM8b5LDrwQC+9F97NyRra0QlkpMxeQGKAlw+DoeebIS/gS+Mzzfh3VonsQUBc+PZkiu+oC8aqzYUDTR1ObDvaHDTBK8UIvld2J0M9h4NItxmB2ej9bTgyq8EvTIwCq+I/qrY7Axae1wYesBXk4KDSH4vFKUXodx50IfmLn3/Iwz6c4rSPxAcT2/4BKuWYFh9Er3yCqy4fecu17XTjb4RDzhb6ZCqViCSF0FRwOD9PrTtcILjzV8eRdaw92gQx55vwdFnm7D3SBA9uzxobLfDYTCGrmXsLgaBRhva+lzYecCPh55pxCNfbEH/Pm9h54/xvYy3M+jZ7UH3TnfN9uIgkhvT2OFA56DbNLSnaYAkqgg227D3aBCPfrEFR/9tEx7+N4148OlGHHwijP3HGjByJIihB3zo2e1Be78LzV0OhFps8AY5eAIcXF598/BmwHJ6it4T4OBr4BFut6Olx4mOARd6hz0YOuDHyJEg9h9rwMHPhPHgZ8N46JlGHHm2CY/+TjN2H/LD18CVrdvS3u9C9y43gquk+qsNia6YMHEljVOvz+PkzyOmS287Blx4/N+1Yv+xhpKlpbKkIpuSEYuISCyISCckZJIy0nEZqZi0sus/nZCQXBJXvk/V9Lj9esJ6LEfri7+WH6CowvJerrCenYYvzMPpZuBw3xHfE+AMNyUrsoZ/fWkGp1+PYG6i9L1YDo9+4T92Ye/R4JZIXkl0hUhugiSqOPfbKF76m1vIpiTDND3NUHj0iy049lyL4RutaYCm6il+TVv+fXmZa2FSW7SlLp+RkViSkIrdEb8cNE3pQyQPu5JgwvKoufBXqnCMDO46xmR5RWLJMEMDFqbzePn7Ezh/PGr4AedsNMLtdvzBn/ejrde18v9sJpVIvgU/3vaE5Wg0ddoxfDhQ0tMtoyoaJq6mcP2jRHETUOjxlpe0shytZ0aXs6IOfdeQ3cnA4bpz+UI8Wnuc6Bv2runq2eNBsMkOl1fPqC5fdpf+7+s7kvRsLMfTYDl6ZQlwieDQP3znT0QxP5EzFBwAXF4WD322Ed4gvyWCV8o2+BGrA0XplaWGDwfg9OibIIyYm8hh9EISqagEzXz4umaWz5t3eti1XW4WDGcs7HpRZA3xRRHXPogjGjHeLMHb9V58+OEgnO7Nv6NuBETyMri8HDoH3OgcdMFuMkTKJGRM38xi7FIKirIBlleRXEbG9Q+TmB3PIW9yPLuvgUffsBeNHXawZaJPtcT2+CmrBEXpt+b9jzfA18Cb9pbROQEf/mYJuYyyIb15NVBVDYlFCWd+FTGtpUIzFFq6nRh+OFDcVNMQyVfB5qAxcmQ5C2rcm6fjEkYvJDE9mkG+xnbFrJVcSsHsWBY3ziVNd/Z4gxza+13oHHIXN9U0RPJVoGgKdgeNnQfuzYLezfLS1uMvz2NptvymglplbiKLj09Fy2746N3jwY4Rz4ZH1TYbIvkaoGgKA/f70DHggs1h/JLJoobR80lM3cggvcp+0Vojl9bnFaMfp4qbVnD7OfTs9qCtr7Y2RKwF43eMUEJThwM9ezxo7nIWNwGFMW06LukFQCe3V28+P5HD+JU0YvPGERUA6Bx0ob3fteqO/VqESL5GaIbCjmEPdh3ym8bNAeDaBwlMXk+XTYfXEoqs4cb5JMYvG/fiFKXvgR05Elwp2r/dIJKvg4ZWO3p2exBqtZuuPowviLh9LYOZsdKsba2haXpkaPxKGpEp47sPy9No7HSgb9gLX2j79eIgkq8PmqEQbrPjvkdCYHljyVVVw8TVNK59EC9uqjlUVcOp1yOYupExXSvj9nF48KlGeIN3tuxtN4jk68TXwGPnAR/8YZtpGYvonIDxy2ksTOVN5ak2oqBibjyH6x8lEF80XidjczBo6nRg+HBg2y0fvhvjd4lgit3JoKXbWajeavzGCzkFcxM5XHk/brLRuPpkkzIunIxiaSa/clhXMcEmGwb3+9DU4dg22U0jtu9PXkVsTgYHPtOAYJPN9BYeiwj48O0lfTe8yUKnaqEqGmIRAe+/uYBs2jjxw7AUOgZd2H8sVNy07SCSfwI4nkbfsAetfS64vMblF5Z789HzSWRM0uTVIr4gYuxiCpHJvGkUqKnTge4hN4IbXJ22GhDJPwF6WI3GroN+tPYax801DcinZbz/1iLiEeMxb7WYHc/i41Mxfb5gcpPRl/J6TFdfbieI5BXQs9uNjgGXaTEdWdIwfimFqZsZpBO1kQVNLImYvJHB9Kj5AV+hFhu6d7oRbt+ecfFiiOQVEGi0oWvQjeZuYxlUVUMqJmH0XBLzt43j0FvN5PUMxi+nTYdQFAUM3OdDa58T9m0cUbkbInmFdA66MLTfX/a2fu1DPQta7TLPsqTixrkkxq+ki5uAguC8ncHw4QDCbcabuLcjRPIKCbXa0b1L39lvJvqdLGi2uGnLUFUNE1fSmBrNIB0zHjrZXSz693nR0uOEw208BNuOEMkrhCkUu9z3SBAsZyy5qmi4fS2Nq1XMgqoKcO6dKCK3zfduevwsHnwqrBckNX4q2xIi+QbgC/HYfSiAQKN5FnRpVsCtS2ksTG99FlQUVMxNZDH2cQpJk17c6WHR2uvEjn2+QtUs62D8jhDWhZ4FdaBvxFM2CzpfyIKuVsx+o8kmZVw8FcOiSXaTovTFZ4P7ffAGS+uwbHeI5BuEzcHgwKfDCDbbTMs0xCKFvaDprdsLqqp6dvO9NxeRM9mczNsYdPS7sPvB7bV3c62YvB2E9cLyNHqHPWjrdcHlNV6SKuQUzI1nMXo+iXThhOTNJh7Rs5sLUzkoJtnNziEX+u/zWiK7aQSRfIOgKD3dP3TAj7YyWdBcWsHp1yP6CkWTCeBGMjOexcXTMdO9mwxDoW/Ei57d1shuGkEk32B6C1lQsxCcLKkYv5LCrUspJBY2N92fWBIxeT2DKZPsJkUBLb1OdA64EGjki5stA5F8gwk02dA55EaLSRZ0uTe//mEC02NZw951o5i8nsHElTQyCePsJsNS2H0ogOYup2lUyApY95lVkc4BF4YeKJ8FHb2Qwu1rGYh548lgpSiyVja7STMUHG4Wex7yI9RqzbH4MkTyTSDUYkfP7vJZ0HxWxu1raYyVKQPxSVEVDeNX0mXLY7h9LPZ9KoRgk3ls3ypY+9lVCYbV94Lu+1TQ9LQKTQWmRjO4+kFiw9e0KIqGc8eXEJnMGSaeKJqCL8TjwBMNcPlYS2U3jTB+BwgV4y1kQf2NvGlPmVyScPuavp7EbPPCehEFFfO3c7h5IWma3fSF9EJBHf0u0w+hlbD+M6wSdieDll4nevd4yqw3V7E4k8eFd6IQcqrpBob1kEnIuPRuHEszgmF2k2YotPa6MHw4AJuDMd2+ZyWI5JuIzUHjwKfDCDXbTIcEiUUJ545HkY5LhUOoPjmqqiG+IOC9NxZMs5tON4uuITcGHzA+lcGKEMk3EZbTs6CtfU64TI4WV2QViSURV96LIxmtLG5+T3ZTLu3FAaBvxIPePe5tV7SzEojkmwhFAbyNxtADvrJZUDGv4IN/XcLijFBRFnTmVhaX3tXLYBjF3+1OBn0jXrT3u0zvLFaESL4F9Oz2oHuXG26/WW+uYWo0g9vX0kiYFPpZjWRUwuT1DCZvmMTFaQpdQ26079ieRTsrgUi+BQSbbOjd40XngHHZY03TF29d/yiB6ZufLAs6eT1tmt2kKICz0xg+HEBju3kdR6tCJN8iune6MfxwwDQ5BACj51OYuJo2jIqUQ1U0XPswifGrxr04w9HwN/AYOuCH38JrVMwgkm8RLh+Lth0u9O7xmMbN81kFk9czuHkhWdxkiqpoGL+cxvSoeXbTG+Bw8IkGePxc3fXiIJJvHTRDoaHFjvsfC5keNa6pGqZHM7h6du1ZUFnWcO6dJUSmjLObLEcj2GzDvkdC27poZyUYv9qETcHlZ9G/z4emToep6IlCFnT65upZUFFQEZnMYfRcEsmocS/uD/Po3eNBY4fD9A5iderzWVcJjtd71Z0H/PAGjcfGy1nQ88tZ0DJkEhIuvRvH4qxxdpNhKbT2OrHzoF+Pi9ffSAUgkm89vI3GA483INRSJgu6JOHD3+hZUKMhCAoRmVhExHtvLJgeLOvysegccqFvxFvcVFcQybcYhqHQ0GbTj2VpMa5SpcgqUlE9C5pYMo6bL83mceN8EgtTedPsZu9uD7oG6yu7aQSRfKspVMQd2u9D+w7zLKgsq4gvihDzxgJnkjKicwJkSS2Jq1MU4PSy2LG3/rKbRhDJq0TbDhc6B93whYzH5gAgi6pp6QpZ0kx3FVE0hbZeJ1r76i+7aQSRvEq4vCyaux1o6jTeC1oJNA209brqNi5eDJG8irg8HHwNpKfdbIjkBMtDJCdYHiI5wfIQyQmWh0hOsDxEcoLlIZITLA+RnGB5iOQ1iqbq61NiEQGxiIh0XEIuoyCdkBCLCIgvCMiljdP6hHshktcosqzh2kcJHH95Did+PoeLp2IYv5zCxdMxHH95Hqdei2D88sYXC7UiRPIaRVM1pKISrn+UwMlX5vHqDybxT389hlf/zyROvTaPWxdThjvzCaUQyauI3c2Y1mJBoR5LLq0gGZUQnRewMJ1HdF5AKiohn1XKlJWj4PAwYHmyOAtE8uriDXIIt9n1IwU3yEeK0re9hVrtsDvrc+NyMUTyKuIJcGjtdaKl2wmOpyve3EBR+lGLzV0OtPY44TQ5t6jeIJJXEZqm0NbnwjN/2AF/2Fa28NBaYDgarX1OPPu1TrT2OMDZyNsLInn1cbgY9N/nxR/9xQCe+8892PdIEN6g+Ti9GIrSyzEPHw7gi3/chd/7L73o3uWpi+L6a4W8ElWGZig43Sza+pwYeTiIY8+14nN/1InHnmvByOEgOgbc8Id58HYGKJwVGmi0oX2HC4P7fTj0ZBife6ETjz/fipEjQbT0OGF31kdx/bVCJK8RaJqCP8xjx14vDnymAUc+34TDn2/Ckc834cjnmgu/3/VY4Tr8uSYceiqM/vt8CDTa9Eks4R6I5DUIb2fQ0u3E8MMBHH22CU9/tR2/+yfd+P1v9uH5/9SDz/77dnzqC83Yf6wBfSNevecmbptCJCdYHiI5wfIQyQmWh0hOsDxEcoLlIZITLA+RnGB5KE0rrokKfP/PruL8O9HihwEAfSNefPVb/fCF+A0vCfzGj6Zx6tUIIlO54iY0dTrwpW/0omvQDds6V9eJgoqZsSxyaRnqGo8pIWw+nF3P3obbjEtY300qLuHq2The/Ksx5LOlO6K+/p1d2HXI+JTpupA8GZVw/OU5RCZzkExKIRO2Hm+Ix+B+H+5/LFTcVAKRfBUWZ/J48TtjGL+cMj1znrD1hNvseOjpRjz1lfbiphIqkZyMyQmWh0hOsDxEcoLlIZITLE9dSE5RFDieBm9nwNtpctXKZaO3ZP17XURXEksifv1PM5gbz0HMlc7MCdXBF7Zh94N+HHoyXNxUQiXRlbqQXJY0JBZFiHkFKgmT1wwsR8HpYdd0Qh2RnGB5KpG8LsbkhPqGSE6wPERyguUhkhMsT11MPBVZQzouQZLMz6onbD0MS8HuZOD0rF6zsZKJZ11Ink3JuHAiiviCCEkkltcKLi+LjgE3+vd5i5tKIJKvAllqW5uQpbYEwgZBJCdYHiI5wfIQyQmWpy4kpygKLEeD5WlwNnLVzMXTFZ+usRbqIrqSWBTx5ov6UlshXzozJ1QHf5jHngcDOPQUWWoLVCi5LKmIzi0vtS15uoQqwXI0XD4WvhBf3FQCkZxgeSqR3HBMTlGU+ckFmqZXoSr5aBAItYmh5AxHmU4Ilk8JNrgBEAg1iaHkdqe+4dcIUVARmc5BITUFCdsEQ5Pdfg4Ok9N84wsizvxiAcmoBNX0bHcCoXYwnHi++4sFnHx1HjcvJIubQNP65tODT4ax+5AfoRYb6DWWFWA5Gt4AB5o2Pku+3MSzodWOz7/QgdZeF3iH4WeTYGEyCRljHyfx8/89CcGg4kK5iaeh5FOjGRz/6RzO/GoBklC6NJWiAJuTxa6DfjR32cGwa5PO18DhvkcbYHPQuuhFlJPc7ecwcjgAXwMPllvb/0ewDmJewcJ0HhdOxCBLpU6uW3JF1nDmlxG89c8zmJvIofQrPhldO9144duDevjRoPcvJzmBUI5ykht2iQxLYeB+Hw4+2QiGpc3DiQTCNsBQcgDwNfAYuM+L+x4N6ue6EwjbFFPJOZ5GU6cDD362EbsO+eEL8aAMxtEbyXKNPAJhI/n/zkPZFC1gRTMAAAAASUVORK5CYII=;" vertex="1" parent="1">
          <mxGeometry x="1080" y="220" width="75.4" height="75" as="geometry" />
        </mxCell>
        <mxCell id="oTmP2A5p6jje87KI3bVO-31" value="Consultas via AWS Athena" style="shape=image;verticalLabelPosition=bottom;labelBackgroundColor=none;verticalAlign=top;aspect=fixed;imageAspect=0;image=https://blog-images.webscraper.io/images/3lKxthygrf8GBAE4drq6UmoqVR90LuQ6Y11GP3r6.png;" vertex="1" parent="1">
          <mxGeometry x="863.17" y="390" width="188.66" height="80" as="geometry" />
        </mxCell>
        <mxCell id="oTmP2A5p6jje87KI3bVO-34" value="" style="image;aspect=fixed;perimeter=ellipsePerimeter;html=1;align=center;shadow=0;dashed=0;spacingTop=3;image=img/lib/active_directory/web_server.svg;" vertex="1" parent="1">
          <mxGeometry x="30" y="40" width="40" height="50" as="geometry" />
        </mxCell>
      </root>
    </mxGraphModel>
  </diagram>
</mxfile>
